<svg width="20" height="20" viewBox="0 0 20 20" fill="none" xmlns="http://www.w3.org/2000/svg">
<path fill-rule="evenodd" clip-rule="evenodd" d="M10 17.4432C9.75995 17.4679 9.50933 17.4061 9.32654 17.2366C6.76839 14.8637 3.89333 15.9073 2.27911 16.8502C1.75632 17.1555 1 16.7874 1 16.182V4.0972C1 3.72932 1.1992 3.393 1.5356 3.2441C3.01531 2.58915 7.23259 1.07711 10 3.64703C12.7674 1.07711 16.9847 2.58915 18.4644 3.2441C18.8008 3.393 19 3.72932 19 4.0972V16.182C19 16.7874 18.2437 17.1555 17.7209 16.8502C16.1067 15.9073 13.2316 14.8637 10.6735 17.2366C10.4907 17.4061 10.24 17.4679 10 17.4432ZM9.25 5.02381C8.31735 3.97678 7.09779 3.66194 5.79539 3.70717C4.52226 3.75139 3.29182 4.14663 2.5 4.46503V15.0493C3.3012 14.6873 4.27626 14.3743 5.34973 14.3032C6.60714 14.22 7.95746 14.474 9.25 15.2893V5.02381ZM10.75 15.2893C12.0425 14.474 13.3929 14.22 14.6503 14.3032C15.7237 14.3743 16.6988 14.6873 17.5 15.0493V4.46503C16.7082 4.14663 15.4777 3.75139 14.2046 3.70717C12.9022 3.66194 11.6826 3.97678 10.75 5.02381V15.2893Z" fill="#CED0D6"/>
</svg>
