<svg width="20" height="20" viewBox="0 0 20 20" fill="none" xmlns="http://www.w3.org/2000/svg">
<path fill-rule="evenodd" clip-rule="evenodd" d="M3.82047 3.98794C3.54615 4.23394 3.5 4.40841 3.5 4.5C3.5 4.59159 3.54615 4.76606 3.82047 5.01206C4.09443 5.25775 4.53322 5.51334 5.13947 5.7433C6.34666 6.2012 8.06493 6.5 10 6.5C11.9351 6.5 13.6533 6.2012 14.8605 5.7433C15.4668 5.51334 15.9056 5.25775 16.1795 5.01206C16.4538 4.76606 16.5 4.59159 16.5 4.5C16.5 4.40841 16.4538 4.23394 16.1795 3.98794C15.9056 3.74225 15.4668 3.48666 14.8605 3.2567C13.6533 2.7988 11.9351 2.5 10 2.5C8.06493 2.5 6.34666 2.7988 5.13947 3.2567C4.53322 3.48666 4.09443 3.74225 3.82047 3.98794ZM16.5 6.62161C16.1673 6.81942 15.7933 6.99378 15.3925 7.14579C13.9757 7.68319 12.069 8 10 8C7.93101 8 6.02427 7.68319 4.60749 7.14579C4.20672 6.99378 3.83265 6.81942 3.5 6.62161V8.2C3.5 8.29159 3.54615 8.46606 3.82047 8.71206C4.09443 8.95775 4.53322 9.21334 5.13947 9.4433C6.34666 9.9012 8.06493 10.2 10 10.2C11.9351 10.2 13.6533 9.9012 14.8605 9.4433C15.4668 9.21334 15.9056 8.95775 16.1795 8.71206C16.4538 8.46606 16.5 8.29159 16.5 8.2V6.62161ZM18 4.5C18 3.8322 17.6404 3.28322 17.181 2.87122C16.7212 2.45889 16.0983 2.1219 15.3925 1.85421C13.9757 1.31681 12.069 1 10 1C7.93101 1 6.02427 1.31681 4.60749 1.85421C3.90174 2.1219 3.27879 2.45889 2.81901 2.87122C2.35959 3.28322 2 3.8322 2 4.5V15.5C2 16.1678 2.35959 16.7168 2.81901 17.1288C3.27879 17.5411 3.90174 17.8781 4.60749 18.1458C6.02427 18.6832 7.93101 19 10 19C12.069 19 13.9757 18.6832 15.3925 18.1458C16.0983 17.8781 16.7212 17.5411 17.181 17.1288C17.6404 16.7168 18 16.1678 18 15.5V4.5ZM16.5 10.3216C16.1673 10.5194 15.7933 10.6938 15.3925 10.8458C13.9757 11.3832 12.069 11.7 10 11.7C7.93101 11.7 6.02427 11.3832 4.60749 10.8458C4.20672 10.6938 3.83265 10.5194 3.5 10.3216V11.8C3.5 11.8916 3.54615 12.0661 3.82047 12.3121C4.09443 12.5577 4.53322 12.8133 5.13947 13.0433C6.34666 13.5012 8.06493 13.8 10 13.8C11.9351 13.8 13.6533 13.5012 14.8605 13.0433C15.4668 12.8133 15.9056 12.5577 16.1795 12.3121C16.4538 12.0661 16.5 11.8916 16.5 11.8V10.3216ZM16.5 13.9216C16.1673 14.1194 15.7933 14.2938 15.3925 14.4458C13.9757 14.9832 12.069 15.3 10 15.3C7.93101 15.3 6.02427 14.9832 4.60749 14.4458C4.20672 14.2938 3.83265 14.1194 3.5 13.9216V15.5C3.5 15.5916 3.54615 15.7661 3.82047 16.0121C4.09443 16.2577 4.53322 16.5133 5.13947 16.7433C6.34666 17.2012 8.06493 17.5 10 17.5C11.9351 17.5 13.6533 17.2012 14.8605 16.7433C15.4668 16.5133 15.9056 16.2577 16.1795 16.0121C16.4538 15.7661 16.5 15.5916 16.5 15.5V13.9216Z" fill="#CED0D6"/>
</svg>
