<svg width="20" height="20" viewBox="0 0 20 20" fill="none" xmlns="http://www.w3.org/2000/svg">
<path d="M8.67711 17.5625H11.3228C11.2514 17.7305 11.148 17.8849 11.0164 18.0164C10.7468 18.286 10.3812 18.4375 9.99996 18.4375C9.61872 18.4375 9.25309 18.286 8.98351 18.0164C8.85195 17.8849 8.74853 17.7305 8.67711 17.5625Z" stroke="#CED0D6" stroke-width="1.12498"/>
<path d="M4.67044 10.3354C4.72252 10.2313 4.74962 10.1164 4.74962 10V7C4.74962 4.97056 5.52645 3.69096 6.52686 2.90116C7.55572 2.08891 8.88143 1.75 9.99962 1.75C11.1178 1.75 12.4435 2.08891 13.4724 2.90116C14.4728 3.69096 15.2496 4.97056 15.2496 7V10C15.2496 10.1164 15.2767 10.2313 15.3288 10.3354L17.4645 14.6067C17.6122 14.9023 17.3973 15.25 17.0669 15.25H2.93237C2.60194 15.25 2.38702 14.9023 2.5348 14.6067L4.67044 10.3354Z" stroke="#CED0D6" stroke-width="1.5" stroke-linejoin="round"/>
</svg>
