<svg width="20" height="20" viewBox="0 0 20 20" fill="none" xmlns="http://www.w3.org/2000/svg">
<path d="M10.3142 4.75C7.49596 4.75 5.19639 6.97056 5.06967 9.75748L6.09801 8.72914C6.3909 8.43625 6.86577 8.43625 7.15867 8.72914C7.45156 9.02203 7.45156 9.49691 7.15867 9.7898L4.31417 12.6343L1.46967 9.7898C1.17678 9.49691 1.17678 9.02203 1.46967 8.72914C1.76256 8.43625 2.23744 8.43625 2.53033 8.72914L3.56812 9.76693C3.69095 6.14693 6.66425 3.25 10.3142 3.25C11.6714 3.25 12.9372 3.65136 13.9965 4.34207C14.3435 4.56831 14.4414 5.03298 14.2151 5.37996C13.9889 5.72693 13.5242 5.82481 13.1773 5.59858C12.3542 5.06192 11.3717 4.75 10.3142 4.75Z" fill="#CED0D6"/>
<path d="M19.1587 11.2709C19.4516 10.978 19.4516 10.5031 19.1587 10.2102L16.3142 7.36572L13.4697 10.2102C13.1768 10.5031 13.1768 10.978 13.4697 11.2709C13.7626 11.5638 14.2374 11.5638 14.5303 11.2709L15.558 10.2433C15.4309 13.0298 13.1315 15.25 10.3135 15.25C9.25591 15.25 8.27347 14.9381 7.4504 14.4014C7.10342 14.1752 6.63875 14.2731 6.41251 14.6201C6.18628 14.967 6.28416 15.4317 6.63114 15.6579C7.69049 16.3487 8.95626 16.75 10.3135 16.75C13.9636 16.75 16.9371 13.8527 17.0596 10.2324L18.098 11.2709C18.3909 11.5638 18.8658 11.5638 19.1587 11.2709Z" fill="#CED0D6"/>
</svg>
