<svg width="20" height="20" viewBox="0 0 20 20" fill="none" xmlns="http://www.w3.org/2000/svg">
<path fill-rule="evenodd" clip-rule="evenodd" d="M5.21685 5.62275C5.50975 5.32985 5.98462 5.32985 6.27751 5.62275L9.35472 8.69995L6.27751 11.7772C5.98462 12.07 5.50975 12.07 5.21685 11.7772C4.92396 11.4843 4.92396 11.0094 5.21685 10.7165L7.2334 8.69995L5.21685 6.68341C4.92396 6.39051 4.92396 5.91564 5.21685 5.62275Z" fill="#CED0D6"/>
<path fill-rule="evenodd" clip-rule="evenodd" d="M9.25 12.75C9.25 12.3358 9.58579 12 10 12H14C14.4142 12 14.75 12.3358 14.75 12.75C14.75 13.1642 14.4142 13.5 14 13.5H10C9.58579 13.5 9.25 13.1642 9.25 12.75Z" fill="#CED0D6"/>
<rect x="1.75" y="2.75" width="16.5" height="14.5" rx="1.25" stroke="#CED0D6" stroke-width="1.5"/>
</svg>
