<svg width="20" height="20" viewBox="0 0 20 20" fill="none" xmlns="http://www.w3.org/2000/svg">
<path fill-rule="evenodd" clip-rule="evenodd" d="M14.0001 5C14.0001 7.20914 12.2092 9 10.0001 9C7.79092 9 6.00006 7.20914 6.00006 5C6.00006 2.79086 7.79092 1 10.0001 1C12.2092 1 14.0001 2.79086 14.0001 5ZM12.5001 5C12.5001 6.38071 11.3808 7.5 10.0001 7.5C8.61935 7.5 7.50006 6.38071 7.50006 5C7.50006 3.61929 8.61935 2.5 10.0001 2.5C11.3808 2.5 12.5001 3.61929 12.5001 5Z" fill="#CED0D6"/>
<path d="M10.0001 10C11.4179 10 12.5676 10.2859 13.5001 10.7496V12.4962C12.6921 11.9111 11.5783 11.5 10.0001 11.5C7.73237 11.5 6.4237 12.3487 5.60297 13.3429C4.80563 14.3087 4.39298 15.5112 4.18699 16.5H10.0001V18H4.00007C3.17164 18 2.51168 17.327 2.65717 16.5114C3.06998 14.1974 4.56751 10 10.0001 10Z" fill="#CED0D6"/>
<path d="M16.5001 12.25C16.5001 11.8358 16.1643 11.5 15.7501 11.5C15.3358 11.5 15.0001 11.8358 15.0001 12.25V15H12.2501C11.8358 15 11.5001 15.3358 11.5001 15.75C11.5001 16.1642 11.8358 16.5 12.2501 16.5H15.0001V19.25C15.0001 19.6642 15.3358 20 15.7501 20C16.1643 20 16.5001 19.6642 16.5001 19.25V16.5H19.2501C19.6643 16.5 20.0001 16.1642 20.0001 15.75C20.0001 15.3358 19.6643 15 19.2501 15H16.5001V12.25Z" fill="#CED0D6"/>
</svg>
