<svg width="20" height="20" viewBox="0 0 20 20" fill="none" xmlns="http://www.w3.org/2000/svg">
<rect width="20" height="20" rx="4" fill="url(#paint0_linear_1413_10806)"/>
<path d="M4.00469 14L3.05669 5.24H4.22069L4.80869 11.528C4.82469 11.688 4.83669 11.864 4.84469 12.056C4.86069 12.248 4.87269 12.436 4.88069 12.62C4.89669 12.804 4.90469 12.964 4.90469 13.1C4.92069 12.964 4.93669 12.804 4.95269 12.62C4.96869 12.436 4.98469 12.248 5.00069 12.056C5.02469 11.864 5.04869 11.688 5.07269 11.528L5.82869 5.24H7.02869L7.73669 11.528C7.75269 11.688 7.76869 11.864 7.78469 12.056C7.80869 12.248 7.83269 12.436 7.85669 12.62C7.88069 12.804 7.89669 12.964 7.90469 13.1C7.91269 12.964 7.92069 12.804 7.92869 12.62C7.94469 12.436 7.96069 12.248 7.97669 12.056C7.99269 11.864 8.00869 11.688 8.02469 11.528L8.62469 5.24H9.75269L8.76869 14H7.26869L6.56069 7.628C6.54469 7.46 6.52869 7.284 6.51269 7.1C6.49669 6.908 6.48069 6.724 6.46469 6.548C6.44869 6.364 6.43269 6.212 6.41669 6.092C6.40869 6.212 6.39669 6.364 6.38069 6.548C6.36469 6.724 6.34869 6.908 6.33269 7.1C6.31669 7.284 6.29669 7.46 6.27269 7.628L5.51669 14H4.00469ZM13.636 14.12C13.044 14.12 12.536 14.024 12.112 13.832C11.688 13.632 11.36 13.352 11.128 12.992C10.896 12.624 10.78 12.188 10.78 11.684H12.064C12.064 12.084 12.204 12.4 12.484 12.632C12.764 12.856 13.152 12.968 13.648 12.968C14.112 12.968 14.476 12.856 14.74 12.632C15.004 12.408 15.136 12.1 15.136 11.708C15.136 11.38 15.044 11.096 14.86 10.856C14.684 10.616 14.428 10.452 14.092 10.364L12.988 10.04C12.348 9.856 11.852 9.544 11.5 9.104C11.156 8.656 10.984 8.124 10.984 7.508C10.984 7.028 11.092 6.608 11.308 6.248C11.524 5.888 11.832 5.608 12.232 5.408C12.632 5.208 13.104 5.108 13.648 5.108C14.448 5.108 15.088 5.324 15.568 5.756C16.056 6.188 16.304 6.768 16.312 7.496H15.016C15.016 7.112 14.892 6.812 14.644 6.596C14.404 6.372 14.064 6.26 13.624 6.26C13.2 6.26 12.868 6.364 12.628 6.572C12.388 6.772 12.268 7.056 12.268 7.424C12.268 7.752 12.356 8.036 12.532 8.276C12.716 8.516 12.976 8.684 13.312 8.78L14.428 9.116C15.068 9.292 15.56 9.604 15.904 10.052C16.248 10.5 16.42 11.036 16.42 11.66C16.42 12.148 16.304 12.58 16.072 12.956C15.84 13.324 15.516 13.612 15.1 13.82C14.684 14.02 14.196 14.12 13.636 14.12Z" fill="white"/>
<defs>
<linearGradient id="paint0_linear_1413_10806" x1="10" y1="0" x2="10" y2="20" gradientUnits="userSpaceOnUse">
<stop stop-color="#3574F0"/>
<stop offset="1" stop-color="#7A64F0"/>
</linearGradient>
</defs>
</svg>
